# xmcd
# 
# Track frame offsets:
#     150
#     52977
#     87922
#     128260
#     167245
#     187902
#     215777
# 
# Disc length: 3310
# 
# Revision: 3
# Processed by: cddbd v1.5.2PL0 Copyright (c) Steve Scherf et al.
# Submitted via: fre:ac v1.0.31
# 
DISCID=560cec07
DTITLE=Kirshbaum - Saraste - Barber: Cello Conc., Cello Sonata, Adagio for Strings
DYEAR=0
DGENRE=
TTITLE0=Cello Concerto, Op. 22,  I  Allegro moderato
TTITLE1=Cello Concerto, Op. 22,  II  Andante sostenuto
TTITLE2=Cello Concerto, Op. 22,  III  Molto allegro e appassionato
TTITLE3=Cello Sonata, Op. 6,  I  allegro ma non troppo
TTITLE4=Cello Sonata, Op. 6,  II  Adagio
TTITLE5=Cello Sonata, Op. 6,  III  Allegro appassionato
TTITLE6=Adagio for Strings, Op. 11
EXTD=
EXTT0=
EXTT1=
EXTT2=
EXTT3=
EXTT4=
EXTT5=
EXTT6=
PLAYORDER=
